<svg xmlns="http://www.w3.org/2000/svg" width="62.375" height="62.602" viewBox="0 0 62.375 62.602">
  <g id="男性のアイコンマーク" transform="translate(0)" style="isolation: isolate">
    <path id="パス_31" data-name="パス 31" d="M62.344,0H43.172a.96.96,0,0,0-.959.959V7.273a.96.96,0,0,0,.959.959h3.639l2.426.013L35,22.477a21.989,21.989,0,1,0,5.86,5.782l8.274-8.274,5.932-5.913v6.058a.96.96,0,0,0,.96.959h6.313a.96.96,0,0,0,.96-.959V.959A.96.96,0,0,0,62.344,0Zm-39.5,54.417A13.727,13.727,0,1,1,36.568,40.69,13.743,13.743,0,0,1,22.841,54.417Z" transform="translate(-0.929)" fill="#07913a"/>
  </g>
</svg>
