<svg width="51" height="152" viewBox="0 0 51 152" fill="none" xmlns="http://www.w3.org/2000/svg">
<mask id="mask0_31_129" style="mask-type:luminance" maskUnits="userSpaceOnUse" x="0" y="0" width="51" height="152">
<path d="M0 152H51L51 0H0L0 152Z" fill="white"/>
</mask>
<g mask="url(#mask0_31_129)">
<path d="M39.0331 0.0200195H0.906726C-5.66918 0.0200195 -11 6.46712 -11 14.42V138.05C-11 146.003 -5.66918 152.45 0.906726 152.45H39.0331C45.609 152.45 50.9398 146.003 50.9398 138.05V14.42C50.9398 6.46712 45.609 0.0200195 39.0331 0.0200195Z" fill="#EE780C"/>
</g>
<path d="M21.1099 31.9927L32.7462 28.8109V30.2427L23.269 32.6745V32.7882L32.7462 35.2654V36.8563L23.269 39.3336V39.4472L32.7462 41.8791V43.3109L21.1099 40.1291V38.6745L30.3826 36.1063V36.0154L21.1099 33.4472V31.9927ZM21.1099 45.0666H32.7462V52.0893H31.4962V46.4757H27.5644V51.7257H26.3144V46.4757H22.3599V52.1802H21.1099V45.0666ZM21.1099 54.6291H32.7462V58.6972C32.7462 59.5078 32.6061 60.1764 32.3258 60.7029C32.0493 61.2294 31.6762 61.6215 31.2065 61.8791C30.7405 62.1366 30.2235 62.2654 29.6553 62.2654C29.1553 62.2654 28.7424 62.1764 28.4167 61.9984C28.0909 61.8241 27.8333 61.5931 27.644 61.3052C27.4546 61.0211 27.3144 60.7124 27.2235 60.3791H27.1099C27.0871 60.7351 26.9621 61.0931 26.7349 61.4529C26.5076 61.8128 26.1818 62.1139 25.7576 62.3563C25.3333 62.5988 24.8144 62.72 24.2008 62.72C23.6174 62.72 23.0928 62.5874 22.6269 62.3222C22.161 62.0571 21.7917 61.6385 21.519 61.0666C21.2462 60.4946 21.1099 59.7503 21.1099 58.8336V54.6291ZM22.3599 56.0382V58.8336C22.3599 59.7541 22.5379 60.4075 22.894 60.7938C23.2538 61.184 23.6894 61.3791 24.2008 61.3791C24.5947 61.3791 24.9583 61.2787 25.2917 61.0779C25.6288 60.8772 25.8977 60.5912 26.0985 60.22C26.303 59.8488 26.4053 59.4094 26.4053 58.9018V56.0382H22.3599ZM27.6326 56.0382V58.6518C27.6326 59.076 27.7159 59.4586 27.8826 59.7995C28.0493 60.1442 28.2841 60.4169 28.5871 60.6177C28.8902 60.8222 29.2462 60.9245 29.6553 60.9245C30.1667 60.9245 30.6004 60.7465 30.9565 60.3904C31.3163 60.0344 31.4962 59.47 31.4962 58.6972V56.0382H27.6326Z" fill="#0C3B2C"/>
<path d="M28.1697 72.27V73.425H22.1997C21.8497 73.425 21.5897 73.375 21.4197 73.275C21.2397 73.175 21.1097 72.985 21.0297 72.705C20.9397 72.445 20.8847 72.09 20.8647 71.64C20.8447 71.2 20.8347 70.645 20.8347 69.975C21.0047 69.945 21.1947 69.885 21.4047 69.795C21.6047 69.715 21.7797 69.635 21.9297 69.555C21.9197 69.895 21.9147 70.225 21.9147 70.545C21.9047 70.875 21.9047 71.16 21.9147 71.4C21.9147 71.64 21.9147 71.81 21.9147 71.91C21.9247 72.05 21.9497 72.145 21.9897 72.195C22.0297 72.245 22.1047 72.27 22.2147 72.27H28.1697ZM33.7797 67.455V76.935H32.7297V67.455H33.7797ZM33.7797 76.515V76.8L33.8397 77.055L33.2247 77.865C32.8047 77.455 32.3797 76.985 31.9497 76.455C31.5197 75.935 31.1147 75.395 30.7347 74.835C30.3547 74.275 30.0247 73.74 29.7447 73.23C29.8247 73.18 29.9097 73.11 29.9997 73.02C30.0897 72.94 30.1797 72.855 30.2697 72.765C30.3697 72.675 30.4447 72.595 30.4947 72.525C30.7447 72.995 31.0447 73.48 31.3947 73.98C31.7447 74.49 32.1047 74.97 32.4747 75.42C32.8547 75.87 33.2047 76.235 33.5247 76.515H33.7797ZM28.9947 66.045V78.6H27.9147V66.045H28.9947ZM30.9897 69.51L31.8297 70.11C31.6497 70.54 31.4497 71.005 31.2297 71.505C31.0197 72.015 30.8047 72.52 30.5847 73.02C30.3647 73.52 30.1497 73.99 29.9397 74.43C29.7297 74.88 29.5397 75.265 29.3697 75.585L28.4097 74.97C28.5797 74.67 28.7747 74.3 28.9947 73.86C29.2147 73.42 29.4397 72.95 29.6697 72.45C29.9097 71.95 30.1397 71.445 30.3597 70.935C30.5897 70.435 30.7997 69.96 30.9897 69.51ZM28.9947 78.21V78.435L29.0697 78.645L28.6647 79.545C28.0047 79.155 27.3397 78.725 26.6697 78.255C25.9997 77.785 25.4397 77.32 24.9897 76.86L25.5447 75.93C25.8147 76.18 26.1297 76.445 26.4897 76.725C26.8497 77.005 27.2247 77.27 27.6147 77.52C28.0147 77.78 28.3997 78.01 28.7697 78.21H28.9947ZM28.1547 87.93L28.6197 88.845C28.2597 89.125 27.8747 89.405 27.4647 89.685C27.0547 89.965 26.6447 90.215 26.2347 90.435C25.8347 90.665 25.4747 90.84 25.1547 90.96L24.6297 89.955C24.9497 89.855 25.3147 89.695 25.7247 89.475C26.1347 89.265 26.5497 89.025 26.9697 88.755C27.3997 88.485 27.7947 88.21 28.1547 87.93ZM31.8747 88.005V93.72H30.8097V88.005H31.8747ZM31.8747 93.255V94.35C31.8747 94.35 31.8347 94.35 31.7547 94.35C31.6847 94.35 31.6047 94.35 31.5147 94.35C31.4247 94.35 31.3547 94.345 31.3047 94.335C29.6047 94.275 28.1697 94.21 26.9997 94.14C25.8297 94.08 24.8647 94.005 24.1047 93.915C23.3547 93.835 22.7697 93.74 22.3497 93.63C21.9297 93.52 21.6297 93.385 21.4497 93.225C21.2297 93.065 21.0797 92.89 20.9997 92.7C20.9197 92.51 20.8647 92.275 20.8347 91.995C20.8047 91.745 20.7947 91.405 20.8047 90.975C20.8147 90.545 20.8297 90.105 20.8497 89.655C21.0197 89.645 21.2147 89.605 21.4347 89.535C21.6447 89.475 21.8247 89.395 21.9747 89.295C21.9347 89.795 21.9097 90.255 21.8997 90.675C21.8897 91.105 21.8847 91.41 21.8847 91.59C21.8847 91.75 21.8997 91.88 21.9297 91.98C21.9597 92.08 22.0247 92.17 22.1247 92.25C22.2547 92.38 22.5197 92.495 22.9197 92.595C23.3297 92.695 23.9047 92.785 24.6447 92.865C25.3847 92.945 26.3297 93.015 27.4797 93.075C28.6297 93.135 30.0147 93.195 31.6347 93.255H31.8747ZM34.6047 88.575L34.3497 89.715C33.6297 89.505 32.9197 89.25 32.2197 88.95C31.5297 88.66 30.8847 88.34 30.2847 87.99C29.6847 87.64 29.1547 87.275 28.6947 86.895C28.7547 86.815 28.8247 86.715 28.9047 86.595C28.9947 86.475 29.0797 86.35 29.1597 86.22C29.2497 86.09 29.3197 85.975 29.3697 85.875C29.7897 86.275 30.2747 86.64 30.8247 86.97C31.3847 87.31 31.9897 87.615 32.6397 87.885C33.2897 88.155 33.9447 88.385 34.6047 88.575ZM34.5897 83.175L34.1997 84.18C33.8397 84 33.4597 83.8 33.0597 83.58C32.6597 83.36 32.2747 83.145 31.9047 82.935C31.5447 82.725 31.2247 82.52 30.9447 82.32L31.2897 81.54C31.5797 81.73 31.9147 81.925 32.2947 82.125C32.6847 82.325 33.0797 82.52 33.4797 82.71C33.8897 82.9 34.2597 83.055 34.5897 83.175ZM32.8797 84.99L32.4597 85.98C31.8897 85.63 31.2897 85.24 30.6597 84.81C30.0397 84.39 29.4347 83.965 28.8447 83.535C28.2547 83.105 27.7447 82.7 27.3147 82.32L27.6897 81.6C28.0297 81.89 28.4147 82.19 28.8447 82.5C29.2747 82.81 29.7247 83.115 30.1947 83.415C30.6647 83.725 31.1297 84.015 31.5897 84.285C32.0497 84.555 32.4797 84.79 32.8797 84.99ZM31.4247 80.82L32.1747 81.375C31.9447 81.655 31.6897 81.94 31.4097 82.23C31.1297 82.52 30.8497 82.785 30.5697 83.025C30.2997 83.265 30.0547 83.45 29.8347 83.58L28.9647 82.98C29.2047 82.84 29.4697 82.65 29.7597 82.41C30.0497 82.18 30.3397 81.925 30.6297 81.645C30.9197 81.365 31.1847 81.09 31.4247 80.82ZM29.3997 84.51L29.7597 85.35C29.4297 85.57 29.0797 85.78 28.7097 85.98C28.3397 86.18 27.9797 86.355 27.6297 86.505C27.2797 86.665 26.9647 86.78 26.6847 86.85L26.2647 85.965C26.5447 85.885 26.8647 85.77 27.2247 85.62C27.5847 85.47 27.9547 85.3 28.3347 85.11C28.7147 84.92 29.0697 84.72 29.3997 84.51ZM27.8847 80.79C27.9047 81.46 27.9297 82.265 27.9597 83.205C27.9997 84.145 28.0447 85.11 28.0947 86.1H27.1647C27.1047 85.15 27.0497 84.22 26.9997 83.31C26.9497 82.4 26.9047 81.59 26.8647 80.88L27.8847 80.79ZM25.7997 84.9L26.0847 85.74C25.6247 85.96 25.1247 86.165 24.5847 86.355C24.0447 86.555 23.5797 86.695 23.1897 86.775L22.8747 85.845C23.2747 85.775 23.7447 85.65 24.2847 85.47C24.8347 85.29 25.3397 85.1 25.7997 84.9ZM26.0097 81.615L25.8447 82.575C25.1347 82.475 24.4347 82.335 23.7447 82.155C23.0647 81.975 22.4847 81.765 22.0047 81.525C22.0547 81.455 22.1047 81.365 22.1547 81.255C22.2047 81.155 22.2547 81.045 22.3047 80.925C22.3647 80.815 22.4097 80.715 22.4397 80.625C22.8997 80.885 23.4447 81.09 24.0747 81.24C24.7147 81.4 25.3597 81.525 26.0097 81.615ZM27.4497 83.34V84.36H20.7597V83.34H27.4497Z" fill="#0C3B2C"/>
<path d="M26.54 126.06C31.5106 126.06 35.54 122.031 35.54 117.06C35.54 112.089 31.5106 108.06 26.54 108.06C21.5695 108.06 17.54 112.089 17.54 117.06C17.54 122.031 21.5695 126.06 26.54 126.06Z" fill="#004639"/>
<path d="M27.8301 114.57L30.3301 117.06L27.8301 119.55" stroke="white" stroke-width="1.13" stroke-linecap="round" stroke-linejoin="round"/>
<path d="M30.3303 117.06H22.7603" stroke="white" stroke-width="1.13" stroke-linecap="round" stroke-linejoin="round"/>
</svg>
