<?xml version="1.0" encoding="UTF-8"?>
<svg id="_レイヤー_2" data-name="レイヤー 2" xmlns="http://www.w3.org/2000/svg" viewBox="0 0 261.7 255.86">
  <defs>
    <style>
      .cls-1 {
        fill: #0c3b2c;
      }

      .cls-2 {
        fill: #428d65;
      }

      .cls-3 {
        fill: #fff;
      }

      .cls-4 {
        fill: #213b33;
      }
    </style>
  </defs>
  <g id="_レイヤー_4" data-name="レイヤー 4">
    <g>
      <g>
        <polygon class="cls-4" points="216.89 92.45 34.61 144.89 40.57 86.36 226.3 0 216.89 92.45"/>
        <g>
          <polygon class="cls-3" points="67.58 87.45 60.91 90.23 57.48 123.86 64.1 121.67 65.74 105.59 76.2 101.67 76.94 94.21 66.48 98.33 67.58 87.45"/>
          <polygon class="cls-3" points="100.12 73.58 92.69 76.74 88.95 113.45 96.31 111.01 96.31 111.01 107.52 107.33 108.31 99.55 97.08 103.47 100.12 73.58"/>
          <polygon class="cls-3" points="143.28 55.17 136 58.3 134.89 69.2 128.96 71.57 130.05 60.85 123.2 63.74 122.12 74.31 116.13 76.71 115.32 84.59 121.31 82.3 120.25 92.72 127.06 90.35 128.14 79.69 134.05 77.43 131.82 99.33 139.02 96.96 141.29 74.66 149.96 71.35 150.83 62.81 142.14 66.29 143.28 55.17"/>
          <polygon class="cls-3" points="184.94 37.46 176.85 40.9 175.61 53.05 162.27 58.38 161.37 67.17 174.69 62.11 172.26 85.93 180.27 83.3 182.74 59.05 197.43 53.47 198.4 43.93 183.68 49.82 184.94 37.46"/>
          <polygon class="cls-3" points="159.03 90.35 166.57 87.87 168.06 73.09 160.51 75.83 159.03 90.35"/>
          <polygon class="cls-3" points="186.32 81.4 194.86 78.53 196.47 62.79 187.91 65.9 186.32 81.4"/>
          <path class="cls-3" d="M199.38,25.44c-.2.01-.4.03-.6.06-3.68.53-6.98,4.05-7.37,7.86-.37,3.6,2,6.18,5.36,6,.2-.01.4-.03.6-.06,3.68-.53,6.98-4.05,7.37-7.86.37-3.6-2-6.18-5.36-6ZM197.51,35.28c-.08.02-.15.05-.22.06-.3.07-.73.1-1.04-.12-.32-.22-.52-.69-.56-1.27-.12-1.77,1.29-3.87,2.96-4.42.08-.02.15-.05.22-.06.3-.07.73-.1,1.04.12.32.22.52.69.56,1.27.12,1.77-1.29,3.87-2.96,4.42Z"/>
        </g>
      </g>
      <g>
        <path class="cls-2" d="M0,219.79v-13.34h6.76v1.7H1.7v11.64H0Z"/>
        <path class="cls-2" d="M15.22,218.13c-.06-.3-.14-.66-.26-1.02l-.94.06v8.22h-2.06v-6.48c-.06.12-.2.18-.4.18-.18,1.62-.56,3.56-1.08,4.76-.42-.28-1.18-.62-1.68-.82.48-1.1.76-3,.9-4.7l2.26.52v-1.54c-.86.06-1.64.1-2.28.12-.04.18-.2.28-.36.3l-.46-2.4h1.38c.32-.4.64-.84.96-1.3-.56-.9-1.48-2-2.28-2.82.46-.58.82-1.1,1.18-1.62l.44.42c.56-1.12,1.12-2.44,1.46-3.48l2.32.94c-.08.14-.26.22-.54.2-.48,1.1-1.28,2.6-1.98,3.68.24.28.46.56.64.82.7-1.12,1.34-2.28,1.82-3.26l2.24,1.02c-.08.14-.28.22-.54.22-.64,1.06-1.5,2.34-2.4,3.56l1.64-.68c.6,1.04,1.2,2.3,1.56,3.36v-2.3h10.92v4.06h-2.18v-2.18h-6.66v2.18h-2.08v-.72l-1.54.7ZM14.26,215.27c-.22-.54-.48-1.06-.72-1.52-.4.54-.8,1.06-1.2,1.54l1.92-.02ZM15.18,222.6c-.14-1.02-.58-2.58-1-3.76l1.76-.54c.46,1.18.9,2.7,1.08,3.7l-1.84.6ZM21.78,217.09c0,.2-.16.32-.44.36-.28,3.88-1.52,6.62-4.56,7.92-.28-.46-1-1.32-1.46-1.68,2.66-1.02,3.6-3.3,3.68-6.74l2.78.14ZM20.92,211.21v-1.12h-4.32v-1.96h4.32v-1.62l2.9.14c-.02.2-.16.32-.52.4v1.08h4.48v1.96h-4.48v1.12h3.66v1.94h-9.52v-1.94h3.48ZM24.7,222.52c0,.56.04.64.32.64h.66c.3,0,.38-.32.42-2.5.42.38,1.32.72,1.92.88-.2,2.88-.74,3.64-2.1,3.64h-1.28c-1.72,0-2.1-.66-2.1-2.66v-5.56l2.68.16c-.02.16-.18.28-.52.34v5.06Z"/>
        <path class="cls-2" d="M37.36,217.67c-.54,1.1-1.32,2.86-1.78,4.08-.34.92-.56,1.54-.78,2.2-.58.02-1.58-.2-2.2-.48-.42-1.32-.7-3.54-.7-5.68-.02-2.86.32-6.14.52-7.78.08-.64.2-1.58.22-2.22.76.06,2.1.26,2.72.52-.56,2.74-1.08,6.64-1.06,8.98,0,.66.08,1.44.2,1.78.02.1.06.12.12,0,.26-.6.84-2.26,1.18-3.08.48.34,1.26,1.18,1.56,1.68ZM43.72,214.05c-1.5.08-3.14.08-4.72-.02-.26-.52-.46-1.74-.44-2.58,1.44.22,3.3.28,5.1.24-.06-1.66-.14-3.32-.26-3.9.88-.06,2.1.02,2.78.2-.04.8-.04,2.16,0,3.52,1.12-.12,2.1-.28,2.78-.5.16.72.18,1.82.06,2.48-.66.14-1.64.28-2.8.4.02.48.02.92.02,1.24,0,5.16-.74,7.92-4.24,9.98-.66-.2-1.86-1.12-2.36-1.88.58-.22,1.12-.46,1.7-.92,2.12-1.64,2.38-4.02,2.38-7.46v-.8Z"/>
        <path class="cls-2" d="M54.58,210.75c.68,0,1.44-.04,2.24-.12.06-.28.1-.54.14-.74.18-1,.34-2.06.36-2.92.74.1,2.2.38,2.82.64-.1.44-.32,1.42-.58,2.6,1.04-.2,1.98-.44,2.64-.7.1.62.06,2.06-.04,2.64-.76.22-1.88.46-3.18.66-.18.76-.38,1.52-.56,2.22-.82,3.02-2.06,7.1-2.94,9.48-.84-.12-2.22-.5-2.84-.9,1-2.2,2.6-6.66,3.3-9.3.1-.4.2-.78.3-1.16-.98.08-2,.14-3,.16-.2-.54-.38-2.04-.4-2.66.5.06,1,.1,1.72.1h.02ZM65.68,222.03c1.46,0,2.92-.28,3.78-.56,0,.6-.14,2.04-.42,2.64-.66.2-2.18.38-3.68.38-3.5,0-5.3-1.44-5.3-3.52.02-1.08.48-2.3.78-2.86.72.1,1.72.48,2.28.8-.3.48-.52,1.04-.52,1.54,0,.92.82,1.58,3.08,1.58ZM66.34,211.65c1.02,0,2.5.08,3.32.2,0,.6-.1,1.82-.26,2.46-.84-.16-2.02-.26-3.12-.28-1.16,0-2.32.06-3.26.2-.06-.46-.02-1.78.04-2.44,1-.1,2.16-.16,3.26-.14h.02Z"/>
        <path class="cls-2" d="M77.56,215.67c.3,2.84,1.02,4.98,1.92,4.98.74,0,1.1-2.2,1.28-4.14.84.28,2,.94,2.5,1.4-.74,4.38-2.04,5.9-3.72,5.9-1.96,0-3.98-1.8-4.64-7.76-.28-2.56-.42-4.78-.5-6.4.74-.02,2.32.12,2.92.28-.04.92.06,3.9.24,5.74ZM92.1,218.81c-.5.46-1.6,1.02-2.54,1.32-.48-2.78-1.74-5.96-3.8-8.18.6-.48,1.68-1.1,2.22-1.36,2.1,2.14,3.86,5.98,4.12,8.22Z"/>
        <path class="cls-2" d="M101.58,212.05v13.34h-6.76v-1.7h5.08v-11.64h1.68Z"/>
        <path class="cls-2" d="M121.22,221.67c.12.88-.04,2.02-.28,2.78-.72.24-2.78.54-4.56.54-2.82,0-5.68-.9-5.68-3.7,0-2.5,2.14-3.74,4.54-4.94-.16-.56-.72-.96-1.48-.96-1.48,0-2.74,1.16-4.36,3.22-.64-.46-1.42-1.24-1.82-1.92,2.12-1.88,3.48-3.66,4.3-5.1-.96.06-1.9.1-2.72.1-.22-.6-.42-1.7-.44-2.44.62.1,1.26.14,1.82.14.64,0,1.48-.02,2.4-.08.3-.84.56-1.78.68-2.58.72.06,1.96.38,2.54.66-.12.38-.34,1.02-.6,1.66,1.28-.16,2.5-.38,3.4-.7.2.58.3,1.62.26,2.24-1.2.3-2.92.58-4.72.78-.46.8-1.06,1.74-1.6,2.48.7-.28,1.36-.42,1.9-.42,1.08,0,2.18.58,2.58,1.84,1.46-.74,2.76-1.38,3.74-1.96.46-.28.96-.6,1.48-1.02.42.52.82,1.7.92,2.38-.6.46-3.82,1.94-5.96,2.94.02,1,.02,2.32.04,3.2-.64.1-1.68.1-2.38-.02.06-.4.08-1.24.08-2.1-1.42.76-2.08,1.44-2.08,2.34,0,1.1,1.12,1.58,3.22,1.58,1.8,0,3.68-.5,4.78-.94Z"/>
        <path class="cls-2" d="M133.24,207.91c-.06.88-.6,8.62-.6,11.36,0,2.12,1.04,2.92,2.72,2.92,2.62,0,5.04-1.5,6.48-3.52.46.6,1.12,2.04,1.28,2.7-1.58,1.76-4.76,3.58-7.98,3.58s-5.16-1.52-5.16-4.9c0-2.76.34-8.42.36-10.2.02-.9.02-1.58-.04-2.22.7,0,2.4.14,2.94.28Z"/>
        <path class="cls-2" d="M149.42,215.47c1.78-.6,4.16-1.8,6.46-1.8,2.78,0,4.92,1.92,4.92,4.72,0,3.76-3.12,5.96-8.14,6.14-.32-.38-.94-1.66-1.12-2.42,3.92.12,6.76-1.1,6.76-3.76,0-1.28-.84-2.42-2.42-2.42-2.3,0-4.52,1.54-7.34,2.42-.4-.38-1.06-1.68-1.26-2.32.6-.12,1.46-.34,2.14-.56Z"/>
        <path class="cls-2" d="M178.26,215.59c0,2.5-.66,5.56-1.76,7.18-.7,1.1-1.46,1.46-2.5,1.46-.94,0-2.38-.4-3.4-.92-.2-.76-.18-2.12-.06-2.76.82.48,2.08,1.02,2.8,1.02.54,0,.84-.1,1.2-.68.74-1.08,1.22-3.38,1.22-5.14,0-1.52-.66-2.08-1.92-2.08-.36,0-.92.08-1.62.2-1.06,2.98-3.04,8.26-4.3,10.54-.72-.18-1.96-.78-2.52-1.28,1.56-2.48,3.12-6.2,4.06-8.76-1.02.18-2.12.36-3.2.48-.3-.62-.54-1.76-.58-2.56.76.04,1.6-.04,2.38-.1.6-.06,1.38-.16,2.22-.28.36-1.28.8-2.92,1-4.22.92.16,2.14.58,2.72.94-.22.7-.54,1.62-.98,2.92.62-.08,1.2-.12,1.64-.12,1.96,0,3.6,1.36,3.6,4.16ZM184.1,216.53c-.4.5-1.42,1.12-2.26,1.38-.66-2.1-2.28-5.16-3.64-6.7.64-.48,1.62-.96,2.16-1.14,1.38,1.56,3.16,4.74,3.74,6.46Z"/>
        <path class="cls-2" d="M191.56,207.37c-.26,1.26-.56,2.8-.58,3.86.74-1.36,2.1-2.74,3.92-2.74,2.5,0,4.9,2.16,4.9,6.9,0,5.2-2.72,8.48-6.78,9.78-.82-.44-1.68-1.4-2.1-2.24,3.52-.74,6.18-2.84,6.18-7.48,0-3.3-1.16-4.7-2.62-4.7-2,0-3.24,2.56-3.4,5.54-.1.86-.1,1.56-.06,2.46-.6.12-1.88.08-2.64-.08-.06-.98-.06-2.48-.06-3.56.02-1.82.34-5,.42-6.12.02-.64.06-1.32.06-1.84.84-.02,2.06.08,2.76.22Z"/>
        <path class="cls-2" d="M218.96,213.81l1.78,1.02c-.08.14-.2.26-.38.32-1.02,2.56-2.6,4.56-4.6,6.1,2,.92,4.4,1.52,7.18,1.84-.54.56-1.2,1.64-1.54,2.34-3.22-.46-5.88-1.32-8.06-2.62-2.34,1.26-5.06,2.08-8.04,2.58-.22-.64-.86-1.78-1.32-2.32,2.66-.36,5.1-.94,7.18-1.84-1.36-1.2-2.48-2.64-3.4-4.36l1.8-.62h-3.76v-2.36h6.34v-2.34h-7.52v-2.38h7.52v-2.64l3.06.16c-.02.2-.18.32-.56.4v2.08h7.64v2.38h-7.64v2.34h3.9l.42-.08ZM210.1,216.25c.82,1.48,1.94,2.72,3.4,3.72,1.48-.96,2.68-2.2,3.54-3.72h-6.94Z"/>
        <path class="cls-2" d="M234.16,217.95c.34-.1.58-.18.94-.18.78,0,1.5.52,1.76,1.62.14.54.34,1.56.52,2.08.22.62.64.8,1.52.8,1.12,0,2.84-.26,3.74-.48.04.7-.04,2.06-.16,2.7-.86.16-3.08.26-3.84.26-1.96,0-2.98-.36-3.36-1.72-.14-.54-.42-1.84-.56-2.28-.22-.62-.56-.82-1.08-.82-1.34,0-2.7,1.56-5.3,4.84-.56-.26-1.7-1.18-2.08-1.82,1.68-1.88,3.7-3.86,4.96-5.14,1.16-1.18,2.7-2.62,3.44-3.4-1.14.18-4.12.48-6.44.64-.24-.56-.44-1.82-.44-2.5,2.24.04,8.46-.48,10.32-.82.34.4.72,1.34.88,1.92-.6.46-1.1.88-1.76,1.44-.76.62-2.36,2.14-3.06,2.86ZM238.3,207.91c.04.56-.14,1.86-.24,2.34-1.88-.04-6.1-.38-8.06-.68-.08-.58-.02-1.82.08-2.38,2.08.44,6.56.78,8.22.72Z"/>
        <path class="cls-2" d="M261.7,219.25c0,2.98-2.44,5.7-6.94,5.7-2.86,0-4.44-1.5-4.44-3.28,0-1.54,1.26-2.82,3.08-2.82,2.32,0,3.78,1.4,4.2,3.1,1.02-.6,1.56-1.56,1.56-2.72,0-1.76-1.46-2.92-3.86-2.92-3.48,0-5.42,2.46-6.86,4.54-.62-.46-1.44-1.34-1.84-2.02,1.36-1.52,3.7-3.92,5.06-5.28,1.22-1.22,2.46-2.42,3.06-3.1-1.12.16-3.02.4-4.86.56-.22-.62-.46-1.72-.52-2.48.58.04,1.32.06,1.9.02,1.64-.1,5.72-.44,6.64-.64.38.4.88,1.28,1.1,1.86-1.06.88-2.46,2.1-3.6,3.16-.8.76-1.48,1.42-1.88,1.88.78-.42,1.8-.6,2.52-.6,3.36,0,5.68,1.8,5.68,5.04ZM255.4,222.63c-.2-1.04-.84-1.76-1.82-1.76-.58,0-.92.36-.92.74,0,.66.7,1.06,1.84,1.06.32,0,.62-.02.9-.04Z"/>
        <path class="cls-2" d="M39.86,250.97c1.14,1.18,2.3,2.44,2.62,2.84-.44.66-1.36,1.56-2.24,2.04-.8-1.08-2.3-2.84-3.66-4.14s-2.68-2.48-3.94-3.4c.56-.62,1.44-1.36,2.1-1.8.56.38,1.94,1.5,3.22,2.66,2.38-1.8,4.44-4.28,5.22-5.66-2.14-.04-11.3.1-13,.16-.16-.68-.36-2-.4-2.66.78.02,1.64.06,2.38.06,1.44.02,10.42-.02,12.06-.08.48-.02.86-.04,1.38-.12.5.34,1.24,1.08,1.6,1.52-1.3,2.54-4.04,5.94-7.34,8.58Z"/>
        <path class="cls-2" d="M57.76,242.69c-.26.72-1.06,1.98-1.56,2.54-1.28-1-3.6-2.4-5.34-3.2.32-.64,1.12-1.98,1.44-2.42,1.58.66,4.08,2.02,5.46,3.08ZM57.44,250.65c3.38-1.88,5.68-4.64,7.3-8.1.72.48,1.7,1.6,2.06,2.28-1.86,3.36-4.5,6.24-7.9,8.2-2.14,1.22-4.26,2.02-5.9,2.46-.74-.68-1.48-1.86-1.76-2.7,2.16-.32,4.38-1.1,6.2-2.14Z"/>
        <path class="cls-2" d="M75.16,245.69c-.5.38-1.64.94-2.44,1.16-.54-1.26-1.66-3.6-2.32-4.64.62-.4,1.8-.9,2.44-1.14.68,1.18,1.74,3.24,2.32,4.62ZM87.46,241.55c-.64,2.98-1.74,5.68-3.5,8.18-2.16,3.1-5.38,4.96-7.62,5.9-.7-.38-1.78-1.58-2.26-2.36,2.5-.7,5.66-2.34,7.68-5.04,1.68-2.26,2.68-5.18,2.96-7.98.88.24,2.1.78,2.74,1.3ZM80.5,243.81c-.52.36-1.64.86-2.48,1.1-.48-1.28-1.5-3.64-2.1-4.7.64-.36,1.78-.84,2.46-1.04.64,1.16,1.6,3.26,2.12,4.64Z"/>
        <path class="cls-2" d="M95.08,245.87c4.48,0,10.98-.08,13.28-.12.12.62.14,2.24.1,2.92-3.02-.12-13.7.04-16.4.02-.12-.68-.22-2.16-.2-2.96.66.06,2.14.14,3.22.14Z"/>
        <path class="cls-2" d="M122.66,250.97c1.14,1.18,2.3,2.44,2.62,2.84-.44.66-1.36,1.56-2.24,2.04-.8-1.08-2.3-2.84-3.66-4.14s-2.68-2.48-3.94-3.4c.56-.62,1.44-1.36,2.1-1.8.56.38,1.94,1.5,3.22,2.66,2.38-1.8,4.44-4.28,5.22-5.66-2.14-.04-11.3.1-13,.16-.16-.68-.36-2-.4-2.66.78.02,1.64.06,2.38.06,1.44.02,10.42-.02,12.06-.08.48-.02.86-.04,1.38-.12.5.34,1.24,1.08,1.6,1.52-1.3,2.54-4.04,5.94-7.34,8.58Z"/>
        <path class="cls-2" d="M140.56,242.69c-.26.72-1.06,1.98-1.56,2.54-1.28-1-3.6-2.4-5.34-3.2.32-.64,1.12-1.98,1.44-2.42,1.58.66,4.08,2.02,5.46,3.08ZM140.24,250.65c3.38-1.88,5.68-4.64,7.3-8.1.72.48,1.7,1.6,2.06,2.28-1.86,3.36-4.5,6.24-7.9,8.2-2.14,1.22-4.26,2.02-5.9,2.46-.74-.68-1.48-1.86-1.76-2.7,2.16-.32,4.38-1.1,6.2-2.14Z"/>
        <path class="cls-2" d="M168.72,242.87c.44,0,1.44-.04,1.92-.06.12.72.16,1.66.08,2.44-.54,0-1.2-.02-1.8-.02l-2.04.02c-.04,5.28-1.42,8.46-6.5,10.6-.58-.34-1.74-1.46-2.22-2.26.86-.18,1.8-.44,2.42-.78,2.6-1.36,3.72-3.3,3.72-7.54l-4.62.04v4.56c-.68.08-1.8.1-2.66,0,.02-.28.06-1.24.08-1.86.02-.7.02-1.68.02-2.68l-1.8.02c-.56,0-1.36.02-1.9.04-.16-.58-.24-1.94-.2-2.5.58.04,1.14.06,1.82.08h2.08c0-.86-.02-1.56-.02-1.94,0-.64-.04-1.36-.1-1.92.7,0,2.04.02,2.7.12,0,.44-.02,1.96-.02,3.74l4.6-.04c0-.84-.02-1.64-.04-2.16-.02-.46-.04-1.28-.12-1.92.76-.02,2.12.04,2.82.12-.02.94-.04,2.44-.04,3.92l1.82-.02Z"/>
        <path class="cls-2" d="M179.52,247.25c-.58,1.7-2.06,4.72-3.06,6-.64-.2-1.74-.72-2.32-1.18,1.2-1.4,2.48-3.78,3.08-5.76.66.2,1.78.64,2.3.94ZM184.54,244.57c0,2.24.04,7.66.04,9.2,0,1.18-.68,1.88-2.1,1.88-.96,0-2.36-.12-3.34-.28-.18-.52-.36-2.12-.36-2.64.86.26,1.96.42,2.54.42.5,0,.74-.14.76-.72,0-.78-.04-5.86-.04-7.82-2.26.02-4.28.04-4.84.04s-1.36.02-1.9.02c-.1-.58-.2-1.94-.2-2.5.6.04,1.16.04,1.84.06.52.02,2.7,0,5.1-.02,0-1.3-.02-2.8-.12-3.28.66-.04,2.06.02,2.74.1-.02.62-.08,1.84-.1,3.16,2.28-.02,4.3-.06,4.74-.06s1.4-.02,1.86-.04c.04.58.1,1.9.1,2.46-.56-.02-1.18-.02-1.74-.02-.6,0-2.68.02-4.98.04ZM188.88,246.31c.88,1.14,2.58,4.28,3.08,6-.52.36-1.6.8-2.44,1.02-.58-2.2-1.74-4.46-2.84-6.02.56-.32,1.58-.8,2.2-1ZM188.18,239.69c0-1.06.88-1.94,1.96-1.94s1.98.88,1.98,1.96-.88,1.98-1.98,1.98-1.96-.88-1.96-1.98v-.02ZM189.14,239.73c0,.54.46.98,1,.98s.98-.44.98-1-.44-.98-.98-.98-1,.44-1,.98v.02Z"/>
        <path class="cls-2" d="M199.68,245.87c4.48,0,10.98-.08,13.28-.12.12.62.14,2.24.1,2.92-3.02-.12-13.7.04-16.4.02-.12-.68-.22-2.16-.2-2.96.66.06,2.14.14,3.22.14Z"/>
        <path class="cls-2" d="M223.22,247.13v6.12c0,.58.04,1.72.08,2.56-.76.08-2.32.02-3.08-.1.06-.64.12-1.7.14-2.54.06-1.84.12-10.2.1-11.78,0-.74-.04-1.78-.14-2.66.78-.02,2.26.04,2.98.16-.04.72-.08,2.94-.08,5.42,2.5.78,5.3,1.88,7.12,2.74-.16.78-.66,2.04-1.12,2.66-1.64-.9-3.98-1.92-6-2.58Z"/>
      </g>
      <g>
        <path class="cls-1" d="M18,182.79c.36-.13.65-.22,1.03-.22.7,0,1.37.45,1.58,1.44.13.5.34,1.62.5,2.09.2.63.63.79,1.53.79,1.01,0,2.65-.2,3.4-.4.04.5-.04,1.46-.13,1.93-.77.14-2.75.23-3.44.23-1.62,0-2.52-.27-2.88-1.49-.14-.49-.4-1.8-.52-2.23-.16-.54-.47-.83-1.03-.83-1.35,0-2.72,1.57-5.09,4.52-.4-.18-1.19-.85-1.46-1.28,1.53-1.76,3.38-3.6,4.48-4.74,1.08-1.12,2.88-2.83,3.55-3.53-1.06.16-4.07.47-6.34.61-.16-.4-.32-1.28-.32-1.78,2.02.04,7.47-.43,9.06-.74.27.31.56.95.67,1.39-.52.41-.99.81-1.58,1.35-.68.59-2.23,2.09-3.01,2.88ZM22.05,173.81c.02.41-.11,1.31-.2,1.66-1.53-.02-5.37-.36-7.08-.63-.05-.43,0-1.3.07-1.69,1.91.4,5.78.7,7.2.67Z"/>
        <path class="cls-1" d="M31.1,180.65c1.57-.52,3.78-1.64,5.85-1.64,2.41,0,4.25,1.66,4.25,4.09,0,3.37-2.95,5.26-7.2,5.4-.23-.29-.67-1.19-.79-1.75,3.49.11,6.21-1.13,6.21-3.67,0-1.31-.86-2.47-2.45-2.47-2.2,0-4.47,1.51-6.77,2.18-.31-.27-.77-1.21-.9-1.67.54-.11,1.19-.27,1.8-.47Z"/>
        <path class="cls-1" d="M48.65,183.6c-.02-.13-.09-.81-.09-.97,0-1.01.47-1.96,1.62-3.04,1.13-1.03,1.82-1.69,1.82-2.61s-.83-1.64-2.63-1.64c-1.06,0-2.18.29-2.88.68l-.61-1.48c.97-.49,2.34-.86,3.78-.86,3.22,0,4.48,1.51,4.48,3.04s-1.03,2.47-2.29,3.53c-.97.86-1.4,1.64-1.4,2.56,0,.16,0,.22.07.79h-1.87ZM48.29,186.48c0-.97.65-1.46,1.35-1.46.79,0,1.33.59,1.33,1.42,0,.74-.47,1.4-1.37,1.4-.76,0-1.31-.59-1.31-1.37Z"/>
        <path class="cls-1" d="M70.5,187.67h-8.25v-1.28l1.42-1.49c2.86-2.93,4.45-4.81,4.45-6.84,0-1.31-.63-2.47-2.34-2.47-1.04,0-1.98.56-2.61,1.06l-.63-1.49c.83-.68,2.14-1.26,3.66-1.26,2.79,0,4.01,1.89,4.01,3.94,0,2.48-1.69,4.56-4.05,6.93l-1.12,1.13v.04h5.46v1.73Z"/>
        <path class="cls-1" d="M80.29,187.67h-1.96v-3.58h-5.67v-1.35l5.31-8.62h2.32v8.39h1.69v1.58h-1.69v3.58ZM74.62,182.5h3.71v-4.07c0-.77.04-1.58.09-2.36h-.07c-.41.86-.76,1.53-1.13,2.25l-2.59,4.14v.04Z"/>
        <path class="cls-1" d="M89.69,173.54v12.15h-3.8v1.55h-1.58v-13.7h5.38ZM88.09,175.08h-2.2v3.73h2.2v-3.73ZM85.89,184.16h2.2v-3.85h-2.2v3.85ZM96.1,178.04h4.43v1.53h-10.51v-1.53h4.39v-2.03h-3.71v-1.51h3.71v-2.09l2.11.13c-.02.16-.13.25-.41.31v1.66h3.82v1.51h-3.82v2.03ZM98.91,179.89c-.02.16-.13.25-.41.31v1.26h2.02v1.51h-2.02v4.47c0,1.66-.68,1.89-3.82,1.89-.07-.47-.32-1.15-.56-1.6.52.02,1.03.02,1.44.02,1.24,0,1.26,0,1.26-.32v-4.45h-6.75v-1.51h6.75v-1.66l2.09.09ZM93.22,187.42c-.38-.88-1.33-2.2-2.21-3.15l1.37-.79c.9.92,1.91,2.18,2.32,3.06l-1.48.88Z"/>
        <path class="cls-1" d="M110.07,179.53h-5.08v9.74h-1.69v-16.13h6.77v6.39ZM108.45,174.42h-3.46v1.28h3.46v-1.28ZM104.99,178.27h3.46v-1.37h-3.46v1.37ZM118.46,173.14v13.99c0,2-.86,2.12-4.05,2.12-.07-.47-.31-1.21-.54-1.67h-4.95v.92h-1.57v-7.71h6.9v6.73c.47.02.9.02,1.28.02,1.21,0,1.22,0,1.22-.43v-7.54h-5.22v-6.43h6.93ZM112.64,182.09h-3.73v1.42h3.73v-1.42ZM108.91,186.28h3.73v-1.51h-3.73v1.51ZM116.75,174.42h-3.58v1.28h3.58v-1.28ZM113.16,178.31h3.58v-1.4h-3.58v1.4Z"/>
        <path class="cls-1" d="M126.82,180.41c-.14.45-.59,1.26-.88,1.6-.99-.63-2.93-1.6-4.14-2.11.16-.43.59-1.31.83-1.62,1.12.45,3.26,1.51,4.2,2.12ZM128.62,184.75c2.58-1.46,5.08-4,6.54-6.97.52.32,1.17,1.12,1.4,1.58-1.49,2.59-3.98,5.22-6.95,6.97-1.94,1.13-3.82,1.85-5.33,2.29-.5-.4-1.04-1.28-1.31-1.85,1.87-.27,4-1.06,5.65-2.02ZM129.22,176.27c-.16.43-.65,1.24-.94,1.57-1.01-.68-2.95-1.73-4.07-2.25.18-.43.65-1.3.88-1.6,1.15.54,3.19,1.6,4.12,2.29ZM135.34,176.29c-.2.2-.61.41-.95.52-.34-.7-.88-1.67-1.37-2.3.31-.2.67-.41.95-.5.45.54,1.12,1.67,1.37,2.29ZM137.32,175.32c-.2.18-.61.41-.97.54-.34-.76-.88-1.66-1.35-2.25.31-.22.67-.41.95-.5.45.52,1.12,1.6,1.37,2.21Z"/>
        <path class="cls-1" d="M152.44,188.41c-.22-.65-.58-1.48-.99-2.36-2.61.49-9.33,1.21-12.64,1.4-.23-.47-.43-1.44-.47-1.98.38.02.85,0,1.19-.02.36-.02.76-.04,1.17-.07,1.12-2.61,2.97-7.44,3.55-9.15.29-.88.45-1.46.59-2.02.65.16,1.44.45,1.96.81-.47,1.12-2.75,7.08-4.11,10.21,2.84-.23,6.05-.58,7.9-.85-.7-1.3-1.46-2.54-2.12-3.37.47-.31,1.17-.61,1.67-.76,1.31,1.82,3.21,5.24,4.07,7.27-.38.34-1.19.74-1.78.86Z"/>
        <path class="cls-1" d="M157.64,175.7c1.22-.14,10.86-1.48,12.66-1.48.2.43.31,1.21.31,1.73-.56-.02-1.85-.02-2.99.34-2.92.97-4.18,3.66-4.18,5.74,0,3.51,2.9,4.48,5.62,4.48-.04.59-.36,1.51-.68,1.91-3.15-.02-6.86-1.66-6.86-6,0-2.93,1.58-4.99,3.21-6.03-1.71.18-6.37,1.04-8.26,1.3-.29-.4-.61-1.39-.68-1.87.74-.02,1.55-.09,1.87-.13ZM169.5,180.18c-.2.18-.63.4-.97.49-.29-.7-.79-1.66-1.19-2.27.27-.18.7-.38.95-.45.36.5.99,1.67,1.21,2.23ZM171.58,179.33c-.22.16-.63.38-.97.49-.31-.68-.81-1.62-1.21-2.23.27-.18.68-.38.94-.45.4.52.99,1.6,1.24,2.2Z"/>
        <path class="cls-1" d="M177.1,182.67c-.29.49-.59,1.13-.59,1.76,0,1.1.97,1.96,3.85,1.96,2.45,0,4.5-.41,5.85-1.04.27.49.47,1.37.49,1.94-1.1.47-3.31.97-6.23.97-3.55,0-5.92-1.19-5.92-3.44,0-1.03.43-2.14.77-2.81.56.09,1.35.38,1.78.65ZM175.89,174.67c2.43.54,7.09.5,9.38.07.07.54.04,1.37-.04,1.85-2.12.36-6.75.38-9.24,0-.11-.52-.16-1.31-.11-1.93Z"/>
        <path class="cls-1" d="M193.12,182.67c-.29.49-.59,1.13-.59,1.76,0,1.1.97,1.96,3.85,1.96,2.45,0,4.5-.41,5.85-1.04.27.49.47,1.37.49,1.94-1.1.47-3.31.97-6.23.97-3.55,0-5.92-1.19-5.92-3.44,0-1.03.43-2.14.77-2.81.56.09,1.35.38,1.78.65ZM191.91,174.67c2.43.54,7.09.5,9.38.07.07.54.04,1.37-.04,1.85-2.12.36-6.75.38-9.24,0-.11-.52-.16-1.31-.11-1.93Z"/>
        <path class="cls-1" d="M212.63,174.53c.02-.85,0-1.24-.02-1.71.56-.04,1.42.04,1.89.16-.05.61-.09,1.35-.14,2.18,1.1-.07,2.21-.22,3.11-.45.13.49.11,1.19.04,1.66-.9.2-2.03.32-3.21.4-.02.56-.02,1.15-.02,1.76,0,.27,0,.56.02.85,1.39-.11,2.77-.32,3.89-.67.11.52.11,1.3.05,1.76-1.06.27-2.43.47-3.89.59.04.95.11,1.93.14,2.79,1.87.45,3.44,1.26,4.52,2.11-.09.59-.45,1.44-.86,1.87-.94-.95-2.16-1.75-3.57-2.25v.45c0,1.46-.86,2.75-3.4,2.75s-4.05-1.06-4.05-2.74c0-1.48,1.44-2.57,4.18-2.57.49,0,.95.02,1.42.07l-.09-2.38c-1.64.07-3.29.07-4.65,0-.2-.5-.32-1.22-.32-1.84.88.11,2.05.2,2.99.2.59,0,1.24-.02,1.93-.04-.02-.32-.02-.59-.02-.85,0-.54,0-1.17.02-1.8-1.48.05-2.86.04-3.83-.04-.18-.45-.31-1.21-.31-1.73.5.07,1.67.18,2.65.18.41,0,.94,0,1.51-.02l.02-.72ZM212.79,185.11c-.56-.09-1.12-.14-1.69-.14-1.46,0-2.2.43-2.2,1.04s.52,1.13,2.07,1.13c1.06,0,1.82-.4,1.82-1.67v-.36Z"/>
        <path class="cls-1" d="M223.52,175.7c1.22-.14,10.86-1.48,12.66-1.48.2.43.31,1.21.31,1.73-.56-.02-1.85-.02-2.99.34-2.92.97-4.18,3.66-4.18,5.74,0,3.51,2.9,4.48,5.62,4.48-.04.59-.36,1.51-.68,1.91-3.15-.02-6.86-1.66-6.86-6,0-2.93,1.58-4.99,3.21-6.03-1.71.18-6.37,1.04-8.26,1.3-.29-.4-.61-1.39-.68-1.87.74-.02,1.55-.09,1.87-.13ZM235.38,180.18c-.2.18-.63.4-.97.49-.29-.7-.79-1.66-1.19-2.27.27-.18.7-.38.95-.45.36.5.99,1.67,1.21,2.23ZM237.46,179.33c-.22.16-.63.38-.97.49-.31-.68-.81-1.62-1.21-2.23.27-.18.68-.38.94-.45.4.52.99,1.6,1.24,2.2Z"/>
        <path class="cls-1" d="M243.38,183.6c-.02-.13-.09-.81-.09-.97,0-1.01.47-1.96,1.62-3.04,1.13-1.03,1.82-1.69,1.82-2.61s-.83-1.64-2.63-1.64c-1.06,0-2.18.29-2.88.68l-.61-1.48c.97-.49,2.34-.86,3.78-.86,3.22,0,4.48,1.51,4.48,3.04s-1.03,2.47-2.29,3.53c-.97.86-1.4,1.64-1.4,2.56,0,.16,0,.22.07.79h-1.87ZM243.02,186.48c0-.97.65-1.46,1.35-1.46.79,0,1.33.59,1.33,1.42,0,.74-.47,1.4-1.37,1.4-.76,0-1.31-.59-1.31-1.37Z"/>
      </g>
    </g>
  </g>
</svg>