<?xml version="1.0" encoding="UTF-8"?>
<svg id="_レイヤー_2" data-name="レイヤー 2" xmlns="http://www.w3.org/2000/svg" viewBox="0 0 292.57 62.8">
  <defs>
    <style>
      .cls-1 {
        fill: #fff;
      }
    </style>
  </defs>
  <g id="_レイヤー_4" data-name="レイヤー 4">
    <g>
      <path class="cls-1" d="M0,20.13V.12h10.14v2.55H2.55v17.46H0Z"/>
      <path class="cls-1" d="M44.4,7.74h-6.3v2.91h5.46v3.93h-15c.18.57.36,1.14.45,1.62l-3.36,1.56c-.06-.39-.18-.84-.3-1.32l-1.32.12v2.25l2.82-.93c.72,1.86,1.5,4.2,1.89,5.76-1.14.39-2.28.81-3.42,1.23-.21-1.26-.75-3.06-1.29-4.68v8.43h-3.81v-9.3h-.09c-.24,2.43-.78,5.31-1.59,7.14-.78-.51-2.16-1.11-3.03-1.47.69-1.65,1.08-4.47,1.26-6.96l3.45.78v-1.98c-1.17.06-2.25.15-3.15.18-.09.33-.36.45-.6.48l-.78-4.26h2.28c.39-.48.78-1.02,1.17-1.56-.87-1.29-2.28-2.82-3.45-3.96l2.01-3.03.51.48c.81-1.62,1.56-3.51,2.04-5.01l4.26,1.71c-.12.24-.45.36-.9.33-.72,1.65-1.92,3.81-2.94,5.43.24.27.45.51.63.78.99-1.59,1.89-3.21,2.55-4.62l3.93,1.77v-1.74h5.88V.18l5.37.27c-.03.36-.3.57-.93.66v2.7h6.3v3.93ZM24.12,13.14c-.27-.63-.54-1.23-.84-1.8-.48.63-.96,1.26-1.44,1.83l2.28-.03ZM33.66,10.65v-2.91h-5.88v-1.98c-.18.15-.45.21-.81.21-.9,1.5-2.13,3.3-3.42,5.04l2.76-1.23c.72,1.26,1.44,2.73,1.98,4.11v-3.24h5.37ZM29.07,28.59v-12.18h13.77v12.18h-4.2v-1.14h-5.58v1.14h-3.99ZM38.64,20.28h-5.58v3.3h5.58v-3.3Z"/>
      <path class="cls-1" d="M78.51,19.71h-8.31c2.49,2.01,5.88,3.78,9.24,4.8-.99.9-2.37,2.67-3.06,3.81-3.33-1.35-6.63-3.57-9.27-6.18v6.51h-4.44v-6.24c-2.64,2.52-5.91,4.59-9.27,5.88-.69-1.08-2.04-2.82-3.03-3.72,3.45-1.05,6.9-2.82,9.36-4.86h-8.37v-3.96h11.31v-1.26h-8.34V1.47h21.39v13.02h-8.61v1.26h11.4v3.96ZM58.59,5.07v1.23h4.08v-1.23h-4.08ZM58.59,10.89h4.08v-1.26h-4.08v1.26ZM71.25,6.3v-1.23h-4.14v1.23h4.14ZM71.25,10.89v-1.26h-4.14v1.26h4.14Z"/>
      <path class="cls-1" d="M101.73,24.42h11.76v3.39h-27.54v-3.39h11.4v-.99h-9.18v-3.24h9.18v-.9h-8.19v-9.72h8.19v-.75h-11.22v-3.36h11.22v-.93c-2.82.15-5.67.24-8.37.27-.09-.93-.54-2.43-.9-3.27,7.17-.15,15.24-.66,20.31-1.53l2.82,3.24c-.12.09-.33.15-.54.15-.12,0-.24-.03-.39-.06-2.46.39-5.4.69-8.55.93v1.2h11.55v3.36h-11.55v.75h8.7v9.72h-8.7v.9h9.81v3.24h-9.81v.99ZM93.42,12.36v.81h3.93v-.81h-3.93ZM93.42,16.5h3.93v-.81h-3.93v.81ZM105.96,12.36h-4.23v.81h4.23v-.81ZM105.96,16.5v-.81h-4.23v.81h4.23Z"/>
      <path class="cls-1" d="M132.45,6.99c-.09.21-.3.39-.54.48-.75,2.16-1.83,4.29-3.12,6.27,1.23.9,3.21,2.58,3.78,3.03l-2.52,3.6c-.42-.57-.99-1.26-1.59-1.95v10.23h-4.23v-9.39c-.75.72-1.56,1.35-2.34,1.89-.33-1.17-1.32-3.33-1.92-4.14,2.73-1.59,5.25-4.44,6.9-7.53h-6v-3.87h3.36V.15l5.1.27c-.03.33-.27.54-.87.63v4.56c.63,0,.69-.03,1.26-.15l2.73,1.53ZM138.99,19.74c-.06.24-.33.45-.78.51-.66,2.94-1.56,6.21-6.09,8.43-.48-1.02-1.59-2.58-2.49-3.33,3.63-1.44,4.23-3.75,4.56-6.15l4.8.54ZM143.67,23.28c0,.9.03.99.39.99h.66c.39,0,.51-.36.6-3.03.75.66,2.58,1.35,3.69,1.62-.39,4.23-1.44,5.31-3.81,5.31h-1.92c-3.21,0-3.84-1.26-3.84-4.86v-4.68h-6.63V1.41h14.13v17.22h-2.73c-.15.06-.33.12-.54.15v4.5ZM136.83,4.83v1.32h5.88v-1.32h-5.88ZM136.83,9.33v1.35h5.88v-1.35h-5.88ZM136.83,13.86v1.35h5.88v-1.35h-5.88Z"/>
      <path class="cls-1" d="M159.96,8.91c0-2.01-.12-3.45-.3-4.56,1.44,0,3.66.15,5.1.33,0,11.4.66,16.41-5.64,22.05-1.14-.51-3.39-2.22-4.32-3.48.78-.45,1.5-.99,2.07-1.65,2.79-2.91,3.09-6.03,3.09-12.69ZM168.33,24.3c.15-.66.27-1.2.27-2.16.09-3.15.21-10.83.12-15.45,0-.99-.03-2.04-.09-2.88.78,0,3.63.18,5.04.42-.18,2.19-.33,11.97-.33,15.81,2.58-1.05,5.16-4.56,6.48-8.13,1.05.84,2.52,2.88,3.24,4.2-1.89,3.66-4.74,7.41-10.47,9.9-.42.15-.84.36-1.35.57-.9-.57-2.25-1.68-2.91-2.28Z"/>
      <path class="cls-1" d="M195.75,12.27c6.75,0,15.78-.12,19.89-.18.18,1.11.21,4.05.12,5.28-4.83-.15-20.49.09-24.84.09-.18-1.26-.36-3.96-.33-5.4,1.14.09,3.63.21,5.16.21Z"/>
      <path class="cls-1" d="M242.37,18.81c-2.25-1.2-5.58-2.73-8.55-3.75,0,3.81.03,7.29.03,8.67,0,.87.06,2.7.15,4.11-1.38.15-4.2.03-5.58-.15.09-.99.21-2.82.24-4.11.06-3.21.12-14.55.09-17.43,0-1.23-.06-3.03-.21-4.47,1.41-.06,4.11.06,5.4.24-.09,1.2-.12,4.38-.12,7.98,3.66,1.17,7.95,2.85,10.62,4.08-.33,1.41-1.26,3.69-2.07,4.83Z"/>
      <path class="cls-1" d="M261.57,8.52v20.01h-10.14v-2.55h7.62V8.52h2.52Z"/>
      <path class="cls-1" d="M276.32,13.02c1.43-.17,12.66-1.72,14.76-1.72.23.5.36,1.41.36,2.02-.65-.02-2.16-.02-3.48.4-3.4,1.13-4.87,4.26-4.87,6.7,0,4.09,3.38,5.23,6.55,5.23-.04.69-.42,1.76-.8,2.23-3.67-.02-8-1.93-8-6.99,0-3.42,1.85-5.82,3.74-7.03-1.99.21-7.43,1.22-9.64,1.51-.34-.46-.71-1.62-.8-2.18.86-.02,1.81-.1,2.18-.15ZM290.16,18.25c-.23.21-.74.46-1.13.57-.34-.82-.92-1.93-1.39-2.65.32-.21.82-.44,1.11-.52.42.59,1.16,1.95,1.41,2.6ZM292.57,17.26c-.25.19-.74.44-1.13.57-.36-.8-.94-1.89-1.41-2.6.31-.21.8-.44,1.09-.52.46.61,1.15,1.87,1.45,2.56Z"/>
      <path class="cls-1" d="M93.88,60.2v1.68h-8.25v.92h-1.89v-8.59c-.4.42-.82.8-1.26,1.13-.19-.44-.59-1.18-.9-1.62v6.47h-3.99v1.72h-1.64v-6.53c-.34.63-.67,1.2-1.07,1.72-.19-.46-.69-1.39-.97-1.83,1.41-1.99,2.31-5.48,2.83-9.15h-2.33v-1.83h7.71v1.83h-3.46c-.25,1.6-.57,3.15-.97,4.64h3.88v2.73c1.8-1.43,3.23-3.65,4.26-6.3h-1.97v2.25h-1.72v-3.95h4.28c.25-.82.48-1.66.67-2.52l2.33.5c-.06.19-.23.27-.52.27-.15.59-.29,1.18-.46,1.74h5.23v3.95h-1.79v-2.25h-4.01c-.42,1.2-.92,2.31-1.49,3.36h1.93c.36-.82.74-1.87.94-2.6l2.18.63c-.06.13-.23.21-.5.23-.21.5-.48,1.13-.78,1.74h3.25v1.68h-3.61v1.62h3.06v1.51h-3.06v1.66h3.06v1.51h-3.06v1.66h4.07ZM79.87,58.46v-5.94h-2.29v5.94h2.29ZM87.96,53.86v-1.62h-2.33v1.62h2.33ZM87.96,57.03v-1.66h-2.33v1.66h2.33ZM85.62,58.54v1.66h2.33v-1.66h-2.33Z"/>
      <path class="cls-1" d="M117.75,57.28h-7.41c1.51,2.04,4.09,3.25,7.68,3.72-.42.4-.92,1.2-1.2,1.74-4.12-.71-6.87-2.37-8.5-5.27-1.16,2.06-3.53,3.93-8.27,5.27-.23-.42-.78-1.2-1.22-1.6,4.03-1.03,6.15-2.39,7.26-3.86h-6.99v-1.7h7.87c.15-.5.23-.99.27-1.49h-5.52v-1.64h5.56v-1.39h-6.17v-1.28h-1.6v-4.33h7.79v-2.44l2.52.15c-.02.19-.15.29-.48.36v1.93h7.89v4.33h-1.45v1.28h-6.49v1.39h5.88v1.64h-5.92c-.02.5-.1.99-.21,1.49h8.69v1.7ZM101.5,49.43h5.79v-1.78l2.5.15c-.02.17-.15.29-.48.34v1.3h5.88v-2.2h-13.69v2.2Z"/>
      <path class="cls-1" d="M127.6,45.35c-.59,2.73-.92,5.5-.99,8.21-.02,1.2.02,2.39.21,3.13.02.19.1.25.19.04.25-.71.71-2.18,1.13-3.32.52.23,1.2.67,1.53,1.09-.78,1.53-2.25,5.46-2.65,6.97-.5.02-1.2-.04-1.72-.19-.46-1.28-.78-3.72-.8-6.03-.02-3.15.29-6.3.55-8.06.08-.69.21-1.7.25-2.35.71.04,1.72.25,2.29.5ZM133.25,55.33c-.23.44-.46,1.07-.46,1.6,0,.94.78,1.81,3.59,1.81,1.99,0,3.82-.38,4.93-.86.17.55.23,1.7.17,2.31-.71.23-2.75.69-5.17.69-3.74,0-5.65-1.28-5.65-3.42,0-.88.29-1.91.65-2.73.67.1,1.47.36,1.93.61ZM140.6,46.05c.1.5.08,1.6.04,2.12-1.95.31-6.4.31-8.36.1-.15-.5-.23-1.51-.19-2.18,2.37.44,6.78.38,8.5-.04Z"/>
      <path class="cls-1" d="M149,44.45h14.51v18.25h-2.1v-1.39h-10.39v1.39h-2.02v-18.25ZM161.41,46.4h-10.39v3.02h10.39v-3.02ZM161.41,51.32h-10.39v3.09h10.39v-3.09ZM151.02,59.36h10.39v-3.09h-10.39v3.09Z"/>
      <path class="cls-1" d="M175.28,50.67c.59.8,2.18,3.21,2.54,3.8l-1.07,1.45c-.29-.69-.9-1.87-1.47-2.88v9.66h-1.83v-9.09c-.65,2.04-1.45,3.93-2.31,5.17-.19-.52-.65-1.28-.95-1.72,1.28-1.74,2.5-4.91,3.09-7.64h-2.62v-1.85h2.79v-4.51l2.31.13c-.02.17-.15.27-.48.34v4.05h2.27v1.85h-2.27v1.26ZM181.7,58.77c-.06.13-.19.17-.4.15-.73,1.01-2.02,2.31-3.25,3.17-.29-.38-.82-.9-1.24-1.22,1.18-.78,2.42-2.02,3.11-3.07l1.78.97ZM190.04,57.47h-5.33v3.38c0,1.74-.74,1.87-3.46,1.87-.06-.5-.34-1.15-.57-1.62.44,0,.86.02,1.18.02.9,0,1.01,0,1.01-.29v-3.36h-5.25v-1.64h12.43v1.64ZM181.41,46.84v-1.28h-3.7v-1.62h12.3v1.62h-3.82v1.28h3.28v5.21h-11.11v-5.21h3.04ZM188.92,54.61h-9.97v-1.49h9.97v1.49ZM180.02,48.34v2.25h1.55v-2.25h-1.55ZM184.62,46.84v-1.28h-1.64v1.28h1.64ZM184.62,48.34h-1.64v2.25h1.64v-2.25ZM188.71,62.09c-.57-.88-1.81-2.29-2.86-3.3l1.41-.94c1.05.97,2.33,2.29,2.94,3.19l-1.49,1.05ZM187.75,50.58v-2.25h-1.74v2.25h1.74Z"/>
      <path class="cls-1" d="M196.72,53.08c1.49-1.36,2.65-2.79,3.8-4.01.59-.61,1.22-.99,2.02-.99s1.41.23,2.18.88c1.2,1.05,2.18,2.06,3.59,3.32,1.85,1.64,3.82,3.38,6.03,4.89-.19.69-.99,1.64-1.6,1.93-1.45-1.15-3.46-2.94-5.38-4.7-1.45-1.39-2.58-2.48-3.61-3.46-.48-.42-.84-.48-1.16-.48-.29,0-.63.17-.97.52-.97,1.07-3.21,3.8-4.89,5.21-.65-.29-1.49-1.03-1.87-1.64.71-.5,1.32-1.01,1.85-1.47Z"/>
    </g>
  </g>
</svg>