<?xml version="1.0" encoding="UTF-8"?>
<svg id="_レイヤー_2" data-name="レイヤー 2" xmlns="http://www.w3.org/2000/svg" viewBox="0 0 257.77 62.64">
  <defs>
    <style>
      .cls-1 {
        fill: #fff;
      }
    </style>
  </defs>
  <g id="_レイヤー_4" data-name="レイヤー 4">
    <g>
      <path class="cls-1" d="M0,20.01V0h10.14v2.55H2.55v17.46H0Z"/>
      <path class="cls-1" d="M42.96,1.23v9.81c0,3.06-1.32,3.66-6.12,3.6-.15-.9-.57-2.1-.99-3-1.47.57-2.88,1.08-3.93,1.47-.03.15-.09.27-.18.39l1.08.21c-.09.24-.36.39-.84.39-.27.51-.57,1.08-.9,1.65h9.48v12.81h-4.44v-1.02h-11.79v1.02h-4.23v-12.81h6.72l.54-1.47c-.99.3-2.22.3-3.72.3-.15-.93-.63-2.19-1.05-3.03.84.03,1.95.03,2.28.03s.45-.12.45-.42v-6.6h-4.83c.99.54,2.04,1.2,2.64,1.74l-1.68,2.19,2.28-.72.6,3.03c-2.22.96-4.53,1.89-6.12,2.49-.03.27-.18.48-.42.57l-1.8-3.75c1.26-.33,2.91-.81,4.68-1.38-.84-.72-2.28-1.65-3.39-2.28l1.53-1.89h-2.04V1.23h12.48v9.96c0,.75-.06,1.29-.24,1.74l2.37.48-1.68-3.36c1.29-.36,2.94-.87,4.71-1.47-.9-.72-2.31-1.59-3.39-2.19l1.47-1.83h-1.83V1.23h12.3ZM36.12,20.04v-1.05h-11.79v1.05h11.79ZM24.33,24.3h11.79v-1.05h-11.79v1.05ZM38.52,10.62c-.69.27-1.41.51-2.1.78v.03c.81.03,1.71.03,1.98.03.36-.03.51-.12.51-.45v-6.45h-4.44c.99.54,1.98,1.14,2.58,1.65l-1.53,2.01,2.31-.78.69,3.18Z"/>
      <path class="cls-1" d="M76.68,3.81h2.49v3.78h-2.76l-.21,2.91h-14.52l.27-2.91h-.87c.21.48.42.93.54,1.32l-2.82,1.41c-.18-.6-.51-1.41-.87-2.22v20.4h-4.11v-15.57c-.27.75-.57,1.44-.99,2.01l-2.76-1.86c1.08-1.5,1.5-4.26,1.5-6.84l2.25.3V0l4.98.27c-.03.33-.27.51-.87.63v4.47l1.59-.72.09.15v-.99h2.7l.27-2.91h14.31l-.21,2.91ZM77.07,23.73h-2.13c1.59.87,3.18,1.77,4.2,2.4l-3.39,2.4c-1.23-.9-3.54-2.43-5.43-3.51l1.47-1.29h-5.28l2.64,1.05c-.15.21-.42.33-.84.27-1.62,1.32-4.2,2.7-6.63,3.54-.63-.78-1.86-2.22-2.64-2.91,1.74-.45,3.57-1.17,4.86-1.95h-2.22v-12.6h15.39v12.6ZM65.76,13.92v.6h7.02v-.6h-7.02ZM65.76,17.1v.63h7.02v-.63h-7.02ZM65.76,20.31v.63h7.02v-.63h-7.02ZM65.88,7.14l-.06.63h1.38l.09-.63h-1.41ZM67.59,3.6h-1.38l-.06.63h1.38l.06-.63ZM70.77,7.77h1.56l.06-.63h-1.53l-.09.63ZM72.57,4.23l.06-.63h-1.41l-.06.63h1.41Z"/>
      <path class="cls-1" d="M89.85,28.5v-14.49c-.81,1.11-1.68,2.13-2.55,3.03-.45-1.11-1.59-3.45-2.25-4.53,2.76-2.7,5.61-7.68,7.26-12.45l5.04,1.74c-.15.3-.48.45-.96.39-.75,1.83-1.62,3.66-2.58,5.46l1.35.36c-.06.3-.33.54-.9.63v19.86h-4.41ZM103.29,22.02c0,1.89.15,2.1,1.5,2.1h3.54c1.35,0,1.59-.96,1.83-5.13,1.02.75,2.82,1.56,4.02,1.83-.48,5.34-1.62,7.38-5.4,7.38h-4.59c-4.14,0-5.31-1.41-5.31-6.21V.69l5.34.27c-.03.36-.3.57-.93.66v9.39c2.61-1.53,5.1-3.33,7.05-4.92l3.39,3.99c-.15.12-.48.24-.9.18-2.58,1.77-6.09,3.66-9.54,5.22v6.54Z"/>
      <path class="cls-1" d="M125.16,8.79c0-2.01-.12-3.45-.3-4.56,1.44,0,3.66.15,5.1.33,0,11.4.66,16.41-5.64,22.05-1.14-.51-3.39-2.22-4.32-3.48.78-.45,1.5-.99,2.07-1.65,2.79-2.91,3.09-6.03,3.09-12.69ZM133.53,24.18c.15-.66.27-1.2.27-2.16.09-3.15.21-10.83.12-15.45,0-.99-.03-2.04-.09-2.88.78,0,3.63.18,5.04.42-.18,2.19-.33,11.97-.33,15.81,2.58-1.05,5.16-4.56,6.48-8.13,1.05.84,2.52,2.88,3.24,4.2-1.89,3.66-4.74,7.41-10.47,9.9-.42.15-.84.36-1.35.57-.9-.57-2.25-1.68-2.91-2.28Z"/>
      <path class="cls-1" d="M160.95,12.15c6.75,0,15.78-.12,19.89-.18.18,1.11.21,4.05.12,5.28-4.83-.15-20.49.09-24.84.09-.18-1.26-.36-3.96-.33-5.4,1.14.09,3.63.21,5.16.21Z"/>
      <path class="cls-1" d="M207.57,18.69c-2.25-1.2-5.58-2.73-8.55-3.75,0,3.81.03,7.29.03,8.67,0,.87.06,2.7.15,4.11-1.38.15-4.2.03-5.58-.15.09-.99.21-2.82.24-4.11.06-3.21.12-14.55.09-17.43,0-1.23-.06-3.03-.21-4.47,1.41-.06,4.11.06,5.4.24-.09,1.2-.12,4.38-.12,7.98,3.66,1.17,7.95,2.85,10.62,4.08-.33,1.41-1.26,3.69-2.07,4.83Z"/>
      <path class="cls-1" d="M226.77,8.4v20.01h-10.14v-2.55h7.62V8.4h2.52Z"/>
      <path class="cls-1" d="M241.52,12.92c1.43-.17,12.66-1.72,14.76-1.72.23.5.36,1.41.36,2.02-.65-.02-2.16-.02-3.49.4-3.4,1.13-4.87,4.26-4.87,6.7,0,4.09,3.38,5.23,6.55,5.23-.04.69-.42,1.76-.8,2.23-3.67-.02-8-1.93-8-6.99,0-3.42,1.85-5.82,3.74-7.03-2,.21-7.43,1.22-9.64,1.51-.34-.46-.71-1.62-.8-2.18.86-.02,1.8-.1,2.18-.15ZM255.36,18.15c-.23.21-.73.46-1.13.57-.34-.82-.92-1.93-1.39-2.65.31-.21.82-.44,1.11-.52.42.59,1.15,1.95,1.41,2.6ZM257.77,17.16c-.25.19-.73.44-1.13.57-.36-.8-.95-1.89-1.41-2.6.32-.21.8-.44,1.09-.52.46.61,1.16,1.87,1.45,2.56Z"/>
      <path class="cls-1" d="M23.91,45.4c.02-.99,0-1.45-.02-1.99.65-.04,1.66.04,2.21.19-.06.71-.11,1.57-.17,2.54,1.28-.08,2.58-.25,3.63-.52.15.57.12,1.39.04,1.93-1.05.23-2.37.38-3.74.46-.02.65-.02,1.34-.02,2.06,0,.31,0,.65.02.99,1.62-.13,3.23-.38,4.54-.78.12.61.12,1.51.06,2.06-1.24.31-2.83.55-4.54.69.04,1.11.13,2.25.17,3.25,2.18.52,4.01,1.47,5.27,2.46-.1.69-.52,1.68-1.01,2.18-1.09-1.11-2.52-2.04-4.16-2.62v.52c0,1.7-1.01,3.21-3.97,3.21s-4.72-1.24-4.72-3.19c0-1.72,1.68-3,4.87-3,.57,0,1.11.02,1.66.08l-.1-2.77c-1.91.08-3.84.08-5.42,0-.23-.59-.38-1.43-.38-2.14,1.03.13,2.39.23,3.48.23.69,0,1.45-.02,2.25-.04-.02-.38-.02-.69-.02-.99,0-.63,0-1.36.02-2.1-1.72.06-3.34.04-4.47-.04-.21-.52-.36-1.41-.36-2.02.59.08,1.95.21,3.09.21.48,0,1.09,0,1.76-.02l.02-.84ZM24.1,57.75c-.65-.1-1.3-.17-1.97-.17-1.7,0-2.56.5-2.56,1.22s.61,1.32,2.41,1.32c1.24,0,2.12-.46,2.12-1.95v-.42Z"/>
      <path class="cls-1" d="M46.72,46.18c-.02-.71-.06-1.62-.17-2.37.63-.06,1.68,0,2.25.15-.02.38-.04,1.39-.04,2.58,2.83-.08,5.5-.15,6.49-.17.13.57.15,1.47.11,1.97-1.3-.06-3.84-.02-6.61.04v2.88c.63.86.92,2.08.92,3.57,0,2.94-1.55,6.28-5.04,7.62-.59-.23-1.53-.99-1.83-1.49,1.85-.44,3.63-1.66,4.41-3.63-.42.25-.92.38-1.47.38-1.89,0-3.59-1.49-3.59-3.93,0-2.27,1.68-3.84,3.63-3.84.36,0,.69.04,1.01.1l-.02-1.62c-3.72.1-7.45.25-8.86.31-.15-.5-.29-1.45-.29-2.08.67.04,1.89.06,2.71.04,1.03,0,3.63-.06,6.42-.13l-.02-.4ZM47.35,52.9c-.31-.92-.88-1.26-1.66-1.26-.9,0-1.7.8-1.7,2.16,0,1.18.73,2.08,1.7,2.08,1.22,0,1.89-.94,1.66-2.98ZM51.57,46.01c-.25-.57-.71-1.43-1.07-1.93.34-.19.82-.4,1.13-.5.34.48.82,1.34,1.07,1.93-.27.19-.8.42-1.13.5ZM53.86,45.32c-.25-.59-.71-1.45-1.07-1.91.32-.21.82-.42,1.11-.5.36.44.84,1.3,1.09,1.87-.25.21-.78.44-1.13.55Z"/>
      <path class="cls-1" d="M66.5,54.64c-.84,1.64-2.39,5.33-2.81,6.97-.46.02-1.18-.02-1.7-.15-.36-1.18-.63-3.82-.63-6.28,0-3.23.36-6.59.61-8.48.08-.69.19-1.7.23-2.35.65.06,1.76.25,2.27.52-.55,2.79-.97,5.75-1.05,8.38-.04,1.32,0,2.69.08,3.38,0,.27.13.27.21.06.27-.65.8-2.06,1.26-3.19.52.27,1.15.67,1.53,1.13ZM75.38,49.73c0,2.6.17,4.58.25,6.4,1.62.52,2.9,1.3,3.74,1.95-.06.61-.38,1.68-.76,2.14-.9-.9-1.91-1.57-2.92-2.06v.02c0,1.68-.69,3.38-3.74,3.38-2.79,0-4.39-1.36-4.39-3.13,0-1.55,1.05-2.96,4.07-2.96.67,0,1.32.06,1.93.15-.06-1.74-.19-4.01-.19-5.77-1.78.08-3.53.08-4.77.04-.21-.5-.38-1.47-.36-2.08,1.53.21,3.38.25,5.12.15v-3.59c.67.02,1.7.13,2.2.27-.1,1.01-.17,2.08-.19,3.15,1.32-.15,2.44-.38,3.15-.63.13.55.08,1.51-.02,1.99-.9.25-1.99.42-3.15.52v.04ZM73.64,57.43c-.76-.17-1.47-.25-2.08-.25-1.43,0-2.1.44-2.1,1.18,0,.82.86,1.32,2.14,1.32,1.68,0,2.04-.73,2.04-2.1v-.15Z"/>
      <path class="cls-1" d="M84.48,50.44c1.45-.44,3.57-1.2,5.65-1.93l.29,1.43c-1.76.73-3.59,1.49-4.81,1.93,0,.17-.08.31-.23.38l-.9-1.81ZM93.28,50.97c0,.27-.02.5-.06.69l2.2.55c-.06.13-.23.21-.48.21-.19.4-.46.88-.76,1.34h6.95v8.88h-2.02v-.8h-9.78v.8h-1.93v-8.88h4.85c.23-.48.48-1.07.67-1.57-.5.5-1.39.5-3.21.5-.08-.44-.31-1.03-.52-1.45.44.02.86.02,1.2.02.97,0,1.07,0,1.07-.29v-5.44h-6.47v-1.57h8.29v7.01ZM86.73,45.57c.99.48,2.2,1.28,2.77,1.89l-1.03,1.28c-.55-.63-1.74-1.47-2.73-2.02l.99-1.15ZM99.11,56.99v-1.7h-9.78v1.7h9.78ZM89.33,60.29h9.78v-1.76h-9.78v1.76ZM100.23,49.69c-1.87.71-3.82,1.47-5.1,1.91-.02.17-.13.31-.25.36l-.88-1.76c1.51-.46,3.74-1.22,5.92-1.99l.31,1.49ZM102.83,43.95v6.99c0,1.76-.92,1.83-3.8,1.83-.08-.46-.31-1.11-.54-1.53.9.02,1.85.02,2.12.02.27-.02.36-.08.36-.31v-5.42h-6.45v-1.57h8.31ZM96.01,45.55c.99.46,2.25,1.24,2.86,1.85l-1.03,1.3c-.59-.61-1.81-1.45-2.81-1.99l.99-1.15Z"/>
      <path class="cls-1" d="M111,47.35c-.02,2.04-.34,4.26-1.24,5.65l-1.32-.9c.73-1.11,1.05-3.13,1.09-4.96l1.47.21ZM126.39,45.84h1.95v1.76h-2.06l-.15,2.2h-9.87l.21-2.2h-1.53c.29.67.55,1.32.69,1.81l-1.37.67c-.19-.8-.69-2.06-1.18-3.09v15.58h-1.89v-19.65l2.37.13c-.02.19-.15.29-.48.36v3.38l1.22-.52c.15.27.27.59.42.88v-1.3h1.91l.19-2.12h9.7l-.15,2.12ZM126.77,59.24h-2.56c1.51.71,3.13,1.6,4.12,2.23l-1.57,1.13c-.97-.69-2.67-1.7-4.22-2.48l1.01-.88h-4.7l1.85.76c-.08.13-.23.19-.48.17-1.2.92-3.13,1.89-4.85,2.48-.29-.38-.86-1.03-1.24-1.34,1.6-.44,3.36-1.22,4.41-2.06h-2.35v-8.57h10.6v8.57ZM118.04,52.06v1.05h6.76v-1.05h-6.76ZM118.04,54.39v1.09h6.76v-1.09h-6.76ZM118.04,56.76v1.11h6.76v-1.11h-6.76ZM118.29,47.44l-.08,1.03h2.18c.04-.31.06-.67.1-1.03h-2.2ZM120.66,45.04h-2.16l-.08.97h2.18l.06-.97ZM122.05,48.47h2.31l.06-1.03h-2.25l-.12,1.03ZM124.52,46.01l.06-.97h-2.23l-.06.97h2.22Z"/>
      <path class="cls-1" d="M135.64,49.16c2.25-.73,5.92-2.62,9.2-2.62,3.72,0,6.45,2.52,6.45,6.26,0,5.21-4.7,7.96-10.98,8.23-.38-.38-.97-1.66-1.09-2.31,5.42.08,9.72-1.87,9.72-6.03,0-2.18-1.57-4.03-4.16-4.03-3.46,0-7.14,2.46-10.44,3.36-.48-.48-1.01-1.43-1.22-2.16.82-.15,1.66-.4,2.52-.69ZM150.77,46.72c-.21.25-.67.57-1.07.76-.5-.69-1.39-1.78-1.97-2.33.27-.27.74-.59,1.01-.71.57.48,1.58,1.64,2.04,2.29ZM152.83,45.34c-.21.23-.67.57-1.05.76-.52-.73-1.34-1.7-1.97-2.29.25-.25.71-.57,1.01-.71.59.48,1.55,1.57,2.02,2.25Z"/>
      <path class="cls-1" d="M168.31,45.19c-1.47,1.87-4.41,4.68-5.58,5.84-.57.57-1.01,1.01-1.01,1.45,0,.69,1.18,1.7,2.69,3.13,1.93,1.78,3.7,3.82,4.62,5.19-.38.55-1.13,1.28-1.93,1.66-1.07-1.72-2.44-3.42-4.24-5.21-2.39-2.35-3.84-3.46-3.84-4.72,0-.67.57-1.34,1.39-2.16,1.38-1.39,4.7-4.43,6.24-6.91.67.4,1.36,1.2,1.68,1.74Z"/>
      <path class="cls-1" d="M180.3,48.74c.71-1.66,2.16-3.61,4.28-3.61,2.44,0,4.89,2.06,4.89,7.05,0,5.33-2.67,8.69-6.84,10.06-.67-.36-1.39-1.13-1.72-1.85,3.7-.82,6.32-3.3,6.32-8.17,0-3.63-1.32-5.23-2.96-5.23-2.12,0-3.42,2.67-3.74,5.65-.19,1.09-.19,1.97-.13,2.94-.52.1-1.58.08-2.2-.08-.06-1.03-.08-2.79-.06-3.86.02-1.87.34-4.93.42-6.11.02-.63.06-1.32.06-1.85.71,0,1.74.08,2.33.21-.31,1.51-.65,3.53-.67,4.85h.02Z"/>
      <path class="cls-1" d="M209.6,52.27c0,2.52-.69,5.94-1.95,7.64-.67.99-1.41,1.32-2.33,1.32-1.01,0-2.46-.48-3.59-1.09-.15-.63-.11-1.76.02-2.29.97.61,2.29,1.18,3.04,1.18.59,0,.95-.15,1.41-.88.82-1.26,1.32-3.8,1.32-5.71,0-1.74-.78-2.37-2.12-2.37-.46,0-1.2.1-2.08.27-1.13,3.21-3.15,8.5-4.6,11.09-.61-.13-1.62-.63-2.08-1.05,1.72-2.73,3.44-6.97,4.39-9.6-1.18.21-2.48.44-3.72.55-.25-.52-.46-1.47-.5-2.16.71.06,1.51,0,2.42-.08.67-.06,1.55-.19,2.5-.34.4-1.34.88-3.02,1.09-4.47.78.13,1.78.5,2.27.82-.25.78-.63,1.89-1.09,3.32.8-.1,1.51-.19,2.02-.19,1.91,0,3.59,1.2,3.59,4.05ZM215.79,53.36c-.34.44-1.15.97-1.87,1.2-.67-2.08-2.56-5.25-3.97-6.72.5-.42,1.32-.82,1.78-.97,1.47,1.55,3.42,4.79,4.05,6.49Z"/>
      <path class="cls-1" d="M224.91,54.3c1.91-1.78,4.22-2.86,6.76-2.86,3.21,0,5.06,1.95,5.06,4.51,0,4.64-4.98,6.34-9.3,6.07-.34-.48-.65-1.53-.71-2.18,4.79.48,7.87-1.18,7.87-3.95,0-1.47-1.15-2.54-3.09-2.54-2.73,0-4.85,1.43-6.36,3.15-.25.31-.5.71-.69,1.03-.53-.19-1.41-.63-1.79-.97.17-1.24.48-8.4.48-9.22.65.06,1.72.23,2.18.4-.17,1.2-.4,5.42-.42,6.55ZM225.2,43.66c1.91.67,5.12,1.51,6.68,1.81-.08.59-.34,1.39-.65,1.91-1.37-.25-5.69-1.45-6.68-1.85.1-.57.44-1.47.65-1.87Z"/>
    </g>
  </g>
</svg>